<?xml version="1.0" standalone="no"?>
<!DOCTYPE svg PUBLIC "-//W3C//DTD SVG 20010904//EN"
 "http://www.w3.org/TR/2001/REC-SVG-20010904/DTD/svg10.dtd">
<svg version="1.0" xmlns="http://www.w3.org/2000/svg"
 width="0" height="0" viewBox="0 0 290.000000 65.000000"
 preserveAspectRatio="xMidYMid meet">

<g transform="translate(0.000000,65.000000) scale(0.100000,-0.100000)"
fill="currentColor" stroke="none">
<path d="M50 360 l0 -240 235 0 235 0 0 240 0 240 -235 0 -235 0 0 -240z m354
186 c21 -15 36 -29 34 -31 -2 -2 -23 1 -48 6 -87 18 -130 21 -157 11 -16 -6
-43 -13 -61 -16 -45 -8 -38 12 14 42 33 19 51 22 110 20 60 -3 77 -8 108 -32z
m-128 -186 c65 -117 71 -131 57 -147 -8 -10 -16 -13 -19 -8 -8 18 -133 238
-139 243 -3 3 -8 3 -11 -1 -4 -3 28 -67 70 -142 65 -116 75 -139 65 -156 -10
-20 -11 -20 -23 -2 -22 32 -186 329 -186 336 0 4 26 7 58 7 l57 -1 71 -129z
m38 60 c22 -39 43 -70 46 -70 4 0 24 32 45 70 31 57 43 70 62 70 26 0 24 -5
-83 -194 l-22 -38 -15 23 c-18 29 -90 155 -106 187 -11 20 -9 22 11 22 18 0
32 -15 62 -70z m-193 -77 c9 -45 21 -66 65 -114 62 -67 68 -87 22 -63 -85 43
-128 112 -128 206 1 57 2 61 15 44 8 -10 19 -43 26 -73z m376 5 c-8 -63 -47
-130 -95 -163 -75 -51 -83 -25 -13 46 36 36 52 61 60 96 6 27 17 61 23 76 10
25 12 27 21 12 5 -10 7 -40 4 -67z"/>
<path d="M1000 275 l0 -145 25 0 25 0 0 145 0 145 -25 0 -25 0 0 -145z"/>
<path d="M2780 372 l0 -50 -40 5 c-75 10 -125 -56 -100 -132 17 -51 43 -64
128 -63 l73 0 -3 142 -3 141 -27 3 c-27 3 -28 2 -28 -46z m-12 -104 c26 -26 4
-98 -29 -98 -29 0 -49 22 -49 53 0 38 15 57 45 57 12 0 26 -5 33 -12z"/>
<path d="M760 270 l0 -140 30 0 c30 0 30 1 30 55 l0 55 45 0 c35 0 52 6 70 25
34 33 34 87 0 120 -21 22 -33 25 -100 25 l-75 0 0 -140z m128 84 c12 -8 22
-21 22 -29 0 -19 -39 -45 -67 -45 -21 0 -23 5 -23 45 0 40 2 45 23 45 12 0 33
-7 45 -16z"/>
<path d="M1121 306 c-13 -14 -20 -29 -16 -35 9 -16 42 -13 49 4 7 19 40 19 56
0 10 -12 10 -16 -1 -19 -8 -2 -34 -10 -59 -18 -40 -12 -45 -16 -48 -46 -2 -18
2 -39 8 -47 16 -19 57 -24 85 -9 14 7 25 9 25 3 0 -5 11 -9 25 -9 25 0 25 1
25 78 0 69 -3 81 -23 100 -33 31 -96 30 -126 -2z m99 -98 c0 -18 -12 -33 -31
-40 -22 -8 -43 7 -36 25 5 13 15 18 60 26 4 0 7 -5 7 -11z"/>
<path d="M1336 253 c20 -43 38 -83 41 -90 2 -6 -5 -33 -16 -59 -12 -25 -21
-49 -21 -51 0 -2 12 -3 27 -1 25 3 34 16 85 128 31 69 57 131 57 138 1 6 -10
12 -23 12 -19 0 -28 -11 -48 -57 l-25 -58 -29 58 c-24 49 -32 57 -56 57 l-27
0 35 -77z"/>
<path d="M1585 318 c-33 -19 -44 -41 -45 -86 0 -34 6 -48 26 -67 29 -27 81
-34 102 -13 9 9 12 8 12 -8 0 -11 -5 -25 -12 -32 -17 -17 -65 -15 -76 4 -11
19 -52 10 -52 -11 0 -41 94 -70 143 -43 41 22 46 39 47 156 0 101 -2 112 -18
112 -10 0 -23 -5 -29 -11 -8 -8 -13 -8 -17 0 -9 14 -55 14 -81 -1z m88 -59
c14 -23 1 -66 -22 -72 -44 -11 -80 50 -49 81 17 17 58 11 71 -9z"/>
<path d="M1790 230 l0 -100 25 0 c24 0 25 3 25 53 0 60 15 87 48 90 17 1 22 7
22 29 0 30 -10 34 -43 17 -16 -9 -22 -9 -25 0 -2 6 -15 11 -28 11 -24 0 -24
-1 -24 -100z"/>
<path d="M1983 318 c-12 -6 -29 -26 -39 -46 -33 -69 13 -143 91 -145 93 -3
138 111 70 179 -26 26 -81 32 -122 12z m92 -62 c30 -46 -17 -102 -65 -76 -23
12 -28 68 -8 88 20 20 56 14 73 -12z"/>
<path d="M2180 252 c0 -111 9 -121 105 -120 l75 1 0 99 0 99 -27 -3 c-27 -3
-28 -5 -31 -70 -3 -75 -17 -97 -51 -78 -18 9 -21 20 -21 80 0 68 -1 70 -25 70
-25 0 -25 -1 -25 -78z"/>
<path d="M2410 230 l0 -100 30 0 29 0 3 73 c3 67 5 72 27 75 32 5 41 -12 41
-85 0 -60 1 -63 25 -63 25 0 25 1 25 80 0 67 -3 83 -20 100 -22 22 -60 26 -91
10 -13 -7 -19 -7 -19 0 0 5 -11 10 -25 10 l-25 0 0 -100z"/>
<path d="M600 210 c-11 -11 -20 -26 -20 -33 0 -24 31 -57 55 -57 50 0 73 60
37 93 -25 22 -48 21 -72 -3z"/>
</g>
</svg>
